<?xml version="1.0" encoding="UTF-8"?>
<svg id="Layer_1" xmlns="http://www.w3.org/2000/svg" version="1.1" viewBox="0 0 65 65">
  <!-- Generator: Adobe Illustrator 29.5.1, SVG Export Plug-In . SVG Version: 2.1.0 Build 141)  -->
  <defs>
    <style>
      .st0 {
        fill: #d31145;
        fill-rule: evenodd;
      }
    </style>
  </defs>
  <path class="st0" d="M50.35,31.14c-1.71.36-2.23-1.12-3.65-2.05-1.42-.94-2.73-1.3-4.04-2.6-.53-.53-.66-1.43-1.19-1.98-.7-.75-1.13-.95-2.08-1.32-1.67-.65-3.1-1.13-4.49-2.27-.24-.19-.79-.44-1.3-.54-.22-.05-.32-.01-.39.07-.21.27-.4.59-.58.89-.05.08-.22.33-.36.46-.27.24-.6.55-.86.69-1.4.85-3.24,1.57-4.03,3-.15.26-1.67.97-2.02,1.25-.55.46-1.1.9-1.66,1.32-.53.4-1.27,1.01-1.82,1.42-.29-.11-.59-.2-.87-.25-.65-.13-1.2-.64-1.77-.97-.72-.46-.67-.5-.9-.64-.2-.11-.3-.18-.37-.21-.54-.31-.57,0-1.33.47-.63.39-1.36,1.03-1.91,1.55-.44.41-.88.84-1.33,1.28.65-9.82,8.96-17.57,19.11-17.57s18.29,7.61,19.09,17.28c-.31.41-.75.63-1.24.73ZM32.49,10.83c-11.21,0-20.3,9.06-20.3,20.23,0,4.66,1.58,8.93,4.23,12.34l.55-.46c-1.48-1.99-2.56-4.27-3.16-6.75.17.04.38.1.72.2,1.13.36,3.26,1.06,4.79.36.97-.46,2.67-.83,3.32-1.08.62-.25,1.92.31.38-.7h0s-.04-.02-.08-.04c-.05-.02-.1-.04-.16-.05-.15-.04-1.38.2-1.65.17-.08-.02-.17-.05-.25-.1-.67-.36,2.18-2.58,2.28-3.13-.82.09-1.49.6-2.23.92-.86.37-1.8.38-2.73.4-1.05,0-1.87.82-2.8,1.19-.48.2-1.28.38-1.82.73-.04-.23-.07-.46-.1-.68.02-.4.06-.88.16-1.43.21-1.2.7-2.14,1.79-3.58,0,0,1.06-1.27,1.68-1.68.24-.17.5-.4.76-.24.27.17-.08,1.21.65,1.39.44.1.05.82.2,1.24.16.44-1.8,2.16-1.28,2.36.29.12,1.59-.54,2.28-.76.61-.19,1.25-.2,1.92-.83.69-.64,1.37-1,1.37-1,.56-.47,1.1-.95,1.65-1.41.54-.47,1.05-.95,1.57-1.43.33-.31,1.8-1.13,1.93-1.4.68-1.48,2.47-2.34,3.8-3.27.24-.17.51-.53.66-.73.15-.2.31-.52.4-.61.17-.19.21-.33.4-.43.08-.04.38-.04.51.11.43.46,1.02.85,1.04,1.33.04.74,2.12,1.39,2.6,1.97.2.24.31.47.39.69-.36-.14-.72-.32-1.04-.55-.21-.16-.7-.12-.95-.16-.72-.13-.56.2-.16.61.41.43.88.79,1.26,1.26.43.53.39.96.51,1.59.13.67.53,1.26.86,1.86.34.6.31,1.24.5,1.88.2.65.75,1.19,1.21,1.67.39.41,1.28,1.4,1.77,1.19.52-.22,1.16.41,1.35.23.2-.17-.52-1-.24-1.25.27-.25,1.46.14,1.71.9.28.89.25.96.2,1.59-.03.42-.2.76-.48,1.06-.35.35-1.17.94-1.01,1.53.75-.4,1.56-.43,2.4-.41.81.02,1.41-.31,1.95-.89.24-.25.93-1.06,1.32-.65.24.24-.46,1.22.31,1.02.51-.13.96-.53,1.42-.78.12-.07.24-.14.33-.22-.6,2.52-1.71,4.85-3.23,6.86l.56.46c2.69-3.43,4.3-7.75,4.3-12.44,0-11.17-9.09-20.23-20.3-20.23ZM25.25,43c-.03.21-.33,2.05-.66,4.09-.6-.13-1.19-.36-1.86-.73-.66-.37-1.17-.75-1.59-1.19,1.56-1.35,2.96-2.58,3.14-2.72.42-.36.62-.44.82-.33.19.11.23.33.15.88ZM26.35,40.04s-.05-.03-.11-.06c-.05-.02-.09-.05-.1-.06,0,.01,0,.01,0,.01-.95-.53-1.89-.5-2.98.29-1.5,1.08-8.69,7.14-8.69,7.14l2.08,1.76s1.15-1.01,2.57-2.23c.69.61,1.47,1.16,2.35,1.65.87.48,1.76.85,2.64,1.1l-.54,3.36,2.59.83s1.38-9.3,1.5-11.13c.1-1.33-.38-2.14-1.32-2.67ZM31.07,54.17h2.73v-13.28h-2.73v13.28h0ZM42.02,46.38c-.67.37-1.26.58-1.86.71-.32-2.03-.61-3.87-.65-4.09-.08-.55-.04-.76.16-.88.19-.11.4-.02.81.33.18.15,1.59,1.38,3.14,2.73-.43.43-.93.82-1.6,1.19ZM38.52,39.92s-.05.04-.11.06c-.05.03-.09.05-.09.05-.95.53-1.43,1.34-1.34,2.67.13,1.84,1.49,11.14,1.49,11.14l2.6-.83-.53-3.35c.88-.26,1.77-.63,2.65-1.11.87-.48,1.65-1.04,2.34-1.65,1.42,1.23,2.57,2.25,2.57,2.25l2.08-1.76s-7.19-6.09-8.68-7.17c-1.08-.79-2.02-.81-2.97-.3ZM36.13,35.11c-.23-.2-.72-.65-.97-1.4-.24-.72-.6-1.29-1.2-1.76-1.08-.84-3.62-2.11-3.44-3.82.08-.76,1.01-.92,1.39-1.48.23-.32.26-.76.53-1.07.31-.35-.12-.35-.42-.37-.64-.02-1.12.67-1.65.96-.87.45-1.66,1.1-2.64,1.32-.29.06-1.76.51-.8.76.66.17,1.39.12,1.93.59.7.6,1.26,1.36,1.97,1.96.35.3.7.59.99.96.33.43.29.92.54,1.37.24.43.71.05,1,.29.96.79-.37,1.17-.72,1.54-.45.49-.54.8-1.36,1.14-.36.15-2.73.43-3.01.65-.29.21-.14.29-.06.37.08.08.48.22.66.23.99.1,4.04.67,4.67-.11.43-.54,1.06-.6,1.76-.41.49.13,1.47.04,2.33-.31.49-.2,1.85-.22,1.47-.42-.47-.91-2.12-.2-2.96-.97h0Z"/>
</svg>